<?xml version="1.0" standalone="no"?>
<!DOCTYPE svg PUBLIC "-//W3C//DTD SVG 20010904//EN"
 "http://www.w3.org/TR/2001/REC-SVG-20010904/DTD/svg10.dtd">
<svg version="1.0" xmlns="http://www.w3.org/2000/svg"
 width="823.000000pt" height="744.000000pt" viewBox="0 0 823.000000 744.000000"
 preserveAspectRatio="xMidYMid meet">

<g transform="translate(0.000000,744.000000) scale(0.100000,-0.100000)"
fill="#000000" stroke="none">
<path d="M4079 5017 c-20 -8 -52 -23 -70 -35 -19 -12 -197 -184 -396 -384
-299 -300 -365 -371 -378 -407 -12 -36 -15 -105 -15 -400 0 -337 2 -358 21
-401 25 -56 53 -86 104 -113 40 -22 41 -22 801 -22 l761 0 49 30 c30 19 60 49
79 79 l30 49 0 381 0 381 -27 45 c-37 63 -732 752 -784 778 -55 28 -130 36
-175 19z m455 -504 c198 -197 364 -362 368 -368 4 -5 8 -161 8 -346 0 -325 -1
-337 -21 -363 l-20 -26 -720 0 c-451 0 -727 4 -739 10 -35 19 -40 64 -40 377
0 235 3 311 14 336 13 31 678 700 720 724 52 30 54 29 430 -344z"/>
<path d="M3832 4378 c-150 -150 -280 -285 -288 -300 -11 -21 -14 -78 -14 -268
l0 -240 80 0 80 0 0 217 0 217 223 225 c122 124 226 226 230 226 4 0 106 -99
227 -220 l220 -220 0 -222 0 -223 80 0 80 0 0 254 0 254 -283 286 c-275 279
-283 286 -322 286 -38 0 -47 -8 -313 -272z"/>
<path d="M3997 4089 l-147 -153 0 -183 0 -183 80 0 80 0 0 151 0 151 67 69 67
70 68 -68 68 -67 0 -153 0 -153 75 0 75 0 0 188 -1 187 -142 149 -142 149
-148 -154z"/>
<path d="M4204 2577 c-58 -30 -61 -33 -51 -57 6 -14 12 -27 13 -28 2 -3 123
37 132 44 6 4 -21 74 -28 74 -3 -1 -33 -15 -66 -33z"/>
<path d="M4529 2471 c-104 -34 -140 -144 -67 -206 16 -14 55 -32 86 -41 72
-20 93 -38 65 -53 -26 -13 -90 3 -120 31 l-21 20 -35 -39 c-34 -36 -35 -39
-19 -57 33 -36 92 -58 161 -59 111 -1 166 41 166 128 0 80 -37 111 -167 139
-31 7 -37 30 -12 40 18 7 63 -2 81 -16 17 -13 45 -2 73 27 19 21 21 27 10 40
-33 40 -143 65 -201 46z"/>
<path d="M6212 2471 c-91 -23 -152 -103 -152 -199 0 -68 18 -109 67 -153 74
-66 189 -72 275 -12 51 34 78 94 78 169 0 110 -72 186 -186 198 -27 3 -64 1
-82 -3z m118 -131 c60 -60 22 -160 -61 -160 -29 0 -43 7 -63 31 -29 35 -33 67
-11 109 17 33 27 38 78 39 24 1 44 -6 57 -19z"/>
<path d="M6625 2465 c-59 -21 -95 -65 -95 -118 0 -71 38 -106 140 -128 47 -10
72 -30 56 -46 -15 -15 -79 -3 -115 20 l-38 26 -32 -33 c-17 -17 -31 -37 -31
-43 0 -20 76 -63 128 -73 116 -22 212 33 212 121 0 77 -29 105 -149 141 -52
15 -63 34 -27 44 17 4 40 -1 65 -13 l40 -20 32 33 33 34 -23 24 c-14 15 -44
29 -73 35 -62 14 -74 13 -123 -4z"/>
<path d="M1440 2415 l0 -55 60 0 60 0 0 -145 0 -145 60 0 60 0 0 145 0 144 63
3 62 3 0 50 0 50 -182 3 -183 2 0 -55z"/>
<path d="M1870 2270 l0 -200 150 0 150 0 0 50 0 50 -90 0 c-89 0 -90 0 -90 25
0 24 2 25 75 25 l75 0 0 50 0 50 -74 0 c-65 0 -74 2 -79 19 -3 11 -2 22 1 25
3 3 43 6 89 6 l83 0 0 50 0 50 -145 0 -145 0 0 -200z"/>
<path d="M2250 2271 l0 -201 55 0 55 0 0 66 c0 81 11 81 58 -4 l34 -62 128 0
128 0 12 30 c12 29 15 30 75 30 60 0 63 -1 75 -30 12 -29 15 -30 71 -30 33 0
59 1 59 3 0 1 -35 90 -78 197 l-78 195 -48 0 -48 0 -77 -192 c-42 -106 -78
-193 -81 -193 -3 0 -23 29 -44 66 l-39 65 20 22 c46 50 56 113 28 167 -25 49
-66 64 -192 68 l-113 4 0 -201z m188 90 c8 -5 12 -21 10 -37 -3 -26 -7 -29
-45 -32 l-43 -3 0 40 c0 40 1 41 33 41 17 0 38 -4 45 -9z m375 -106 l16 -45
-36 0 c-29 0 -34 3 -28 18 4 9 12 29 17 45 5 15 11 27 13 27 2 0 10 -20 18
-45z"/>
<path d="M3287 2463 c-4 -3 -7 -93 -7 -200 l0 -193 65 0 65 0 0 60 0 60 48 0
c86 0 142 56 142 140 0 68 -33 112 -99 130 -40 11 -204 14 -214 3z m188 -123
c9 -28 -11 -50 -46 -50 -26 0 -29 3 -29 35 0 33 2 35 34 35 26 0 36 -5 41 -20z"/>
<path d="M3670 2270 l0 -200 58 0 57 0 0 62 c0 34 5 63 10 65 6 1 26 -25 45
-60 l36 -62 67 -3 c37 -2 67 -1 67 2 0 2 -18 35 -39 72 l-40 68 29 32 c51 58
51 130 1 178 -38 36 -79 46 -193 46 l-98 0 0 -200z m200 85 c7 -8 10 -25 6
-40 -6 -22 -12 -25 -51 -25 -44 0 -45 1 -45 33 0 19 3 37 7 40 12 13 71 7 83
-8z"/>
<path d="M4070 2270 l0 -200 155 0 155 0 0 50 0 50 -95 0 c-94 0 -95 0 -95 25
0 23 3 24 78 27 l77 3 0 45 0 45 -77 3 c-75 3 -78 4 -78 27 0 25 1 25 91 25
l90 0 -3 48 -3 47 -147 3 -148 3 0 -201z"/>
<path d="M4787 2463 c-4 -3 -7 -28 -7 -55 l0 -48 65 0 65 0 0 -145 0 -145 60
0 60 0 0 145 0 145 60 0 60 0 0 55 0 55 -178 0 c-98 0 -182 -3 -185 -7z"/>
<path d="M5283 2453 c-3 -10 -35 -90 -71 -178 -35 -88 -68 -170 -73 -182 -8
-22 -7 -23 52 -23 58 0 60 1 70 30 11 29 13 30 75 30 63 0 65 -1 75 -30 11
-29 13 -30 70 -30 32 0 59 3 59 8 -1 4 -36 93 -78 197 l-77 190 -48 3 c-38 3
-48 0 -54 -15z m86 -235 c1 -5 -14 -8 -33 -8 l-35 0 16 47 16 48 18 -40 c10
-22 18 -43 18 -47z"/>
<path d="M5580 2271 l0 -201 61 0 61 0 -5 90 c-3 50 -2 90 2 90 3 0 19 -23 36
-50 38 -65 56 -64 98 3 l32 52 3 -92 3 -93 59 0 60 0 0 200 0 200 -50 0 c-55
0 -44 10 -126 -122 l-30 -48 -50 83 -51 82 -51 3 -52 3 0 -200z"/>
<path d="M2990 2235 l0 -55 110 0 110 0 0 55 0 55 -110 0 -110 0 0 -55z"/>
</g>
</svg>
