<?xml version="1.0" standalone="no"?>
<!DOCTYPE svg PUBLIC "-//W3C//DTD SVG 20010904//EN"
 "http://www.w3.org/TR/2001/REC-SVG-20010904/DTD/svg10.dtd">
<svg version="1.0" xmlns="http://www.w3.org/2000/svg"
 width="256.000000pt" height="251.000000pt" viewBox="0 0 256.000000 251.000000"
 preserveAspectRatio="xMidYMid meet">

<g transform="translate(0.000000,251.000000) scale(0.100000,-0.100000)"
fill="#000000" stroke="none">
<path d="M1223 1767 c-46 -18 -576 -537 -602 -591 -20 -39 -21 -60 -21 -302 0
-230 3 -263 19 -299 22 -48 44 -69 94 -90 31 -13 113 -15 575 -15 l539 0 44
23 c27 15 52 38 66 63 22 38 23 48 23 317 0 222 -3 283 -14 305 -26 48 -558
570 -598 587 -43 18 -80 18 -125 2z m359 -375 l268 -267 0 -245 c0 -206 -3
-249 -16 -268 l-15 -22 -534 0 c-472 0 -535 2 -549 16 -14 13 -16 52 -16 267
l0 252 267 267 c231 231 272 268 298 268 25 0 67 -37 297 -268z"/>
<path d="M1045 1290 l-210 -210 0 -188 0 -187 58 -3 57 -3 0 168 0 168 165
165 165 165 165 -165 165 -164 2 -166 3 -165 58 -3 57 -3 0 192 0 193 -207
208 c-179 179 -212 208 -238 208 -26 0 -59 -29 -240 -210z"/>
<path d="M1177 1091 l-107 -112 0 -140 0 -140 58 3 57 3 3 116 3 115 47 47 48
47 47 -47 46 -48 3 -115 3 -115 55 0 55 0 2 135 3 135 -108 114 -107 113 -108
-111z"/>
</g>
</svg>
